# xmcd
#
# Track frame offsets:
#	150
#	10000
#	22240
#	33317
#	43387
#	53450
#	63747
#	75412
#	86157
#	97050
#	108872
#	119207
#	131197
#	143212
#	155020
#	160450
#	174805
#	185757
#	195182
#	203505
#
# Disc length: 2836 seconds
#
# Revision: 0
# Processed by: cddbd v1.5.1PL2 Copyright (c) Steve Scherf et al.
# Submitted via: audiograbber 1.83.01
#
DISCID=170b1214
DTITLE=CONWAY TWITTY - HIS GREATEST HITS
DYEAR=1900
DGENRE=COUNTRY
TTITLE0=CONWAY TWITTY - IT'S ONLY MAKE BELIEVE
TTITLE1=CONWAY TWITTY - DANNY BOY
TTITLE2=CONWAY TWITTY - HEAVENLY
TTITLE3=CONWAY TWITTY - I'LL TRY
TTITLE4=CONWAY TWITTY - LONELY BLUE BOY
TTITLE5=CONWAY TWITTY - HALFWAY TO HEAVEN
TTITLE6=CONWAY TWITTY - IS A BLUE BIRD BLUE
TTITLE7=CONWAY TWITTY - THE HURT IN MY HEART
TTITLE8=CONWAY TWITTY - MONA LISA
TTITLE9=CONWAY TWITTY - WHAT AM I LIVING FOR
TTITLE10=CONWAY TWITTY - BORN TO SING THE BLUES
TTITLE11=CONWAY TWITTY - GOLLY GOSH OH GEE
TTITLE12=CONWAY TWITTY - SHAKE IT UP BABY
TTITLE13=CONWAY TWITTY - MAYBE BABY
TTITLE14=CONWAY TWITTY - DOUBLE TALK
TTITLE15=CONWAY TWITTY - I NEED YOUR LOVING
TTITLE16=CONWAY TWITTY - BIG TOWN
TTITLE17=CONWAY TWITTY - DON'T GO TOO FAR
TTITLE18=CONWAY TWITTY - BLUES IS THAT I WALK
TTITLE19=CONWAY TWITTY - THIS ROAD THAT I WALK
EXTD=
EXTT0=
EXTT1=
EXTT2=
EXTT3=
EXTT4=
EXTT5=
EXTT6=
EXTT7=
EXTT8=
EXTT9=
EXTT10=
EXTT11=
EXTT12=
EXTT13=
EXTT14=
EXTT15=
EXTT16=
EXTT17=
EXTT18=
EXTT19=
PLAYORDER=
